<?xml version="1.0" standalone="no"?>
<!DOCTYPE svg PUBLIC "-//W3C//DTD SVG 20010904//EN"
 "http://www.w3.org/TR/2001/REC-SVG-20010904/DTD/svg10.dtd">
<svg version="1.0" xmlns="http://www.w3.org/2000/svg"
 width="592.000000pt" height="592.000000pt" viewBox="0 0 592.000000 592.000000"
 preserveAspectRatio="xMidYMid meet">
<metadata>
Created by potrace 1.11, written by Peter Selinger 2001-2013
</metadata>
<g transform="translate(0.000000,592.000000) scale(0.100000,-0.100000)"
fill="#000000" stroke="none">
<path d="M3181 5828 c0 -29 4 -78 8 -108 5 -30 7 -57 5 -59 -6 -7 -68 45 -138
114 -37 37 -69 65 -72 62 -3 -2 11 -44 30 -93 20 -48 34 -89 32 -92 -6 -5 -70
67 -133 149 -47 63 -53 68 -63 50 -5 -11 -15 -55 -21 -98 -6 -43 -12 -80 -14
-82 -3 -2 -28 18 -56 43 -52 47 -107 82 -115 73 -3 -2 27 -35 66 -73 39 -38
66 -70 60 -72 -6 -2 -19 2 -28 10 -9 8 -39 25 -67 38 -27 13 -78 43 -112 67
-34 23 -66 43 -72 43 -15 0 3 -53 44 -126 19 -36 35 -69 35 -74 0 -13 -27 -2
-94 42 -70 45 -95 50 -46 8 19 -16 32 -30 27 -30 -4 0 -50 12 -102 26 -53 15
-98 24 -101 21 -3 -3 20 -43 53 -89 78 -111 95 -138 86 -138 -5 0 -73 11 -152
25 -159 28 -174 29 -148 14 9 -5 17 -15 17 -20 0 -6 -4 -7 -10 -4 -5 3 -10 2
-10 -4 0 -5 4 -12 9 -15 17 -11 130 -175 123 -179 -19 -11 -115 -37 -177 -47
-38 -7 -73 -15 -78 -17 -4 -3 9 -16 30 -30 21 -14 57 -39 81 -55 l42 -29 -27
-37 c-15 -20 -38 -49 -52 -64 -37 -42 -20 -43 28 -2 23 20 44 34 47 32 2 -3
-8 -27 -23 -54 l-27 -48 33 23 c40 29 49 21 28 -24 -9 -20 -17 -38 -17 -41 0
-4 20 -3 45 0 51 8 55 2 31 -61 -8 -21 -17 -56 -21 -78 -4 -22 -16 -50 -28
-62 l-20 -23 20 0 c19 0 21 -8 25 -82 4 -66 12 -96 37 -148 27 -58 31 -75 31
-153 l0 -87 -37 -18 c-21 -9 -40 -19 -43 -22 -19 -20 -145 -76 -206 -91 -72
-18 -223 -81 -234 -98 -3 -5 -26 -18 -52 -30 -92 -41 -203 -125 -334 -248 -42
-40 -80 -73 -85 -73 -5 0 -17 16 -26 35 -9 19 -24 35 -32 35 -24 -1 -66 -40
-86 -79 -24 -47 -14 -139 17 -162 28 -21 18 -35 -48 -64 -44 -20 -54 -28 -54
-48 0 -19 7 -27 28 -32 15 -3 42 -18 59 -31 32 -24 32 -26 26 -83 -8 -80 12
-208 47 -295 16 -40 32 -98 36 -128 6 -50 4 -57 -14 -67 -78 -42 -417 24 -569
109 -134 76 -194 133 -267 254 -70 116 -37 233 112 406 19 22 63 53 105 74 61
30 84 36 138 36 l64 0 27 43 c37 59 43 89 23 130 l-16 34 -42 -15 c-37 -13
-46 -13 -72 -1 -65 31 -71 99 -12 139 47 32 49 73 5 101 -51 32 -164 23 -243
-19 -148 -79 -270 -193 -320 -300 -41 -85 -75 -252 -68 -332 4 -43 55 -227 74
-262 5 -10 13 -26 18 -35 92 -191 136 -248 301 -390 51 -44 182 -133 195 -133
7 0 29 -13 50 -30 21 -16 56 -35 79 -41 22 -6 51 -17 62 -24 12 -8 46 -20 75
-28 38 -10 54 -18 53 -30 -1 -10 4 -14 15 -11 9 3 3 -2 -14 -10 -16 -7 -63
-19 -102 -25 -40 -6 -116 -29 -169 -51 -53 -22 -101 -37 -106 -34 -6 4 -13 2
-17 -4 -3 -6 -35 -32 -71 -59 -54 -40 -108 -101 -182 -203 -18 -25 -58 -36
-58 -16 0 9 5 16 10 16 16 0 107 96 125 130 11 21 12 28 3 24 -7 -2 -20 -19
-28 -37 -21 -44 -118 -119 -179 -139 -52 -17 -85 -14 -111 7 -27 22 -80 46
-80 35 0 -5 18 -19 40 -30 22 -11 40 -22 40 -24 0 -2 -18 0 -40 4 -30 5 -40 4
-40 -6 0 -20 26 -24 156 -27 135 -2 167 9 186 64 23 67 16 4 -12 -102 -10 -34
-30 -51 -85 -70 l-20 -7 20 -1 c11 0 36 8 55 17 30 15 37 25 48 72 30 126 32
130 55 131 17 1 18 2 5 6 -22 5 -22 7 -3 42 22 44 111 118 180 151 139 66 244
97 355 104 183 12 249 25 323 63 90 47 80 53 -12 7 -49 -25 -82 -35 -101 -32
-16 3 -31 1 -32 -2 -2 -4 -34 -10 -73 -14 -98 -9 -60 13 44 26 130 15 149 24
216 93 34 34 76 70 95 80 19 10 40 24 48 31 7 8 17 14 22 14 27 0 12 -24 -50
-84 -38 -37 -69 -69 -69 -72 1 -3 -10 -18 -24 -32 -26 -28 -81 -112 -73 -112
3 0 20 22 38 49 39 58 137 163 193 207 52 41 175 107 248 134 64 24 87 21 37
-5 -18 -9 -30 -19 -27 -21 6 -7 230 104 239 119 14 22 8 0 -12 -47 -11 -27
-15 -48 -10 -51 6 -4 10 -1 10 6 0 18 54 129 62 129 11 0 11 1 -27 -99 -19
-49 -35 -96 -35 -103 1 -7 14 21 29 62 15 41 40 100 56 130 30 61 136 232 141
228 1 -2 -26 -62 -61 -133 -35 -72 -66 -141 -70 -155 -7 -24 -7 -25 9 -5 15
19 16 19 6 -8 -13 -38 -13 -41 5 -23 8 8 15 26 15 40 0 40 85 246 102 246 5 0
7 -4 4 -8 -3 -5 -1 -22 4 -38 8 -24 9 -20 6 24 -3 44 1 59 23 90 31 44 54 92
46 100 -7 7 -7 7 -39 -60 -15 -32 -31 -58 -36 -58 -11 0 -2 28 14 50 17 22 38
88 32 99 -9 14 17 30 57 34 20 2 42 9 49 14 25 19 78 33 78 20 -1 -18 -30 -54
-30 -36 0 8 -6 3 -13 -11 -21 -39 -89 -144 -98 -150 -4 -3 -10 -23 -14 -45 -4
-22 -11 -53 -15 -70 -5 -17 -5 -55 -1 -85 l9 -55 1 70 c2 39 6 79 11 90 10 22
9 23 14 -75 4 -64 26 -180 41 -215 44 -100 127 -323 134 -361 5 -24 15 -52 24
-62 8 -9 33 -53 55 -97 61 -121 228 -383 265 -413 8 -7 20 -26 27 -43 15 -36
25 -32 11 5 -8 20 -7 26 3 26 27 0 46 -12 46 -29 0 -9 25 -43 55 -76 64 -69
117 -171 181 -350 30 -84 37 -112 24 -95 -11 14 -20 31 -20 39 0 8 -3 11 -7 8
-3 -4 -14 3 -22 16 -24 36 -101 121 -101 112 0 -5 18 -32 40 -62 23 -29 38
-58 35 -63 -4 -6 -1 -9 5 -8 7 2 27 -19 46 -47 19 -27 39 -56 44 -63 6 -6 29
-74 52 -150 22 -75 49 -164 59 -197 58 -196 78 -269 84 -305 4 -22 12 -43 17
-46 11 -7 5 56 -8 91 -7 17 15 18 27 1 4 -4 6 12 5 37 0 25 -4 43 -7 41 -8 -5
-32 76 -25 84 3 3 6 1 6 -4 0 -6 8 -19 18 -30 22 -25 33 -51 65 -154 39 -126
40 -132 41 -170 1 -19 5 -41 10 -49 7 -11 5 -13 -10 -8 -18 7 -18 6 -2 -6 10
-8 15 -17 12 -20 -19 -19 227 -78 402 -97 139 -15 529 -10 561 8 12 6 29 29
38 49 l17 38 204 -3 c198 -4 204 -3 204 16 0 29 11 53 21 46 5 -3 9 0 9 7 0 7
2 10 4 8 2 -2 1 -22 -3 -45 l-8 -41 286 -7 c157 -3 368 -6 469 -5 l182 1 0
722 c0 779 2 746 -50 859 -24 50 -29 28 -6 -25 25 -57 45 -145 27 -118 -8 11
-11 11 -11 2 0 -7 -4 -11 -9 -8 -5 3 -7 16 -5 29 l5 22 -10 -22 c-13 -28 -25
-30 -16 -4 4 15 2 19 -12 16 -10 -2 -21 -4 -25 -4 -3 -1 -3 -11 0 -23 6 -23 6
-23 13 2 6 23 7 23 8 3 1 -12 -3 -25 -9 -28 -10 -6 -13 -1 -86 170 -25 61 -55
122 -65 137 -26 36 -24 41 9 24 32 -17 167 -46 212 -46 16 0 30 5 30 10 0 6
-17 10 -39 10 -52 0 -131 16 -172 34 -36 16 -32 16 49 1 18 -4 23 -3 13 4 -11
7 -4 23 34 77 27 38 64 86 84 108 25 26 29 35 15 27 -12 -6 -34 -25 -50 -43
-15 -18 -31 -32 -36 -30 -5 1 -19 -10 -31 -24 -14 -16 -30 -25 -42 -22 -16 3
-8 12 38 46 31 23 57 45 57 48 0 6 -13 -2 -63 -37 -53 -39 -86 -43 -158 -23
l-62 17 7 60 6 60 -20 -26 c-11 -14 -20 -35 -20 -46 0 -12 -2 -21 -4 -21 -7 0
-165 165 -161 168 2 2 28 8 57 13 49 7 48 8 -17 3 -38 -3 -71 -7 -73 -9 -2 -2
15 -27 39 -54 23 -28 45 -49 47 -46 7 7 82 -66 82 -79 0 -5 -17 6 -37 25 l-38
34 39 -42 c22 -23 43 -40 47 -37 4 2 10 0 14 -6 3 -5 0 -10 -7 -10 -7 0 -2
-10 12 -23 76 -68 179 -242 181 -303 1 -32 2 -35 8 -14 6 21 9 17 28 -35 26
-73 39 -137 24 -115 -8 11 -10 5 -9 -27 1 -23 5 -40 9 -37 4 2 11 -1 15 -7 4
-8 3 -9 -4 -5 -8 5 -13 -3 -14 -21 -2 -40 -2 -49 9 -144 12 -97 1 -197 -22
-215 -8 -6 -15 -16 -15 -23 0 -6 -4 -11 -10 -11 -5 0 -10 5 -10 10 0 15 -27
12 -44 -5 -8 -8 -17 -15 -19 -15 -2 0 -8 28 -11 62 -4 35 -12 68 -17 74 -5 7
-34 24 -64 39 -30 14 -55 31 -55 36 0 6 -4 8 -8 5 -4 -2 -18 34 -31 82 -39
142 -60 199 -110 306 -45 93 -131 224 -131 199 0 -6 11 -24 24 -40 63 -75 161
-304 201 -471 18 -72 18 -74 -2 -93 -19 -20 -20 -20 -48 96 -15 63 -30 113
-32 111 -3 -3 4 -49 16 -103 27 -126 34 -186 21 -178 -13 8 -13 -1 0 -45 7
-21 8 -59 3 -95 l-7 -60 -7 60 c-35 337 -65 465 -150 643 -28 56 -52 102 -54
102 -6 0 8 -36 48 -122 45 -98 70 -178 100 -328 27 -136 41 -263 26 -239 -5 8
-9 26 -9 42 0 15 -5 27 -11 27 -5 0 -7 4 -4 10 3 5 1 18 -4 27 -8 14 -11 15
-12 3 -1 -25 -28 43 -29 73 0 16 -10 37 -24 50 -22 21 -61 121 -52 136 3 3 0
28 -5 55 -5 26 -11 80 -14 120 -3 39 -10 85 -15 101 -5 17 -9 39 -8 50 1 11
-11 44 -25 74 -15 30 -25 57 -22 59 4 5 53 -49 69 -77 5 -9 18 -41 27 -71 22
-67 25 -44 4 27 -10 34 -43 89 -96 159 -45 59 -89 126 -99 148 -10 23 -27 50
-39 60 -27 24 -27 17 0 -31 l22 -38 -27 29 c-14 16 -26 35 -26 43 0 7 -5 13
-11 13 -5 0 -7 -6 -3 -12 3 -7 -4 0 -17 15 -13 15 -35 34 -49 41 -14 7 -24 18
-22 25 1 7 -25 42 -58 78 -34 36 -59 68 -56 71 4 3 -4 16 -16 29 l-23 24 30
-11 c17 -6 42 -23 56 -36 l26 -25 -5 26 c-5 27 -5 27 44 19 27 -3 59 -11 72
-15 45 -17 47 -8 3 10 -28 11 -39 20 -30 24 8 3 -25 6 -72 6 -78 1 -88 3 -109
26 -13 14 -31 25 -39 25 -14 0 -14 1 -1 10 8 5 10 10 5 10 -6 0 -26 14 -44 31
-18 16 -35 28 -37 26 -6 -5 31 -85 56 -122 11 -16 20 -34 20 -40 0 -24 -62 87
-97 172 -21 51 -41 93 -45 93 -15 0 35 -138 84 -228 21 -41 37 -76 34 -79 -4
-4 -39 53 -41 67 0 3 -6 15 -13 28 -18 32 -34 27 -16 -6 30 -57 65 -144 62
-154 -2 -6 -17 23 -33 63 -15 41 -31 76 -34 79 -18 15 -51 106 -51 138 0 66
-29 144 -68 185 -20 20 -31 37 -25 37 6 0 14 -6 16 -12 4 -9 6 -8 6 3 1 8 -6
24 -15 35 -8 10 -13 13 -9 7 4 -9 -1 -13 -15 -13 -12 0 -28 13 -40 33 -11 17
-20 26 -20 19 0 -9 -16 -4 -47 14 -61 35 -95 65 -89 80 2 6 -1 11 -7 11 -25
-2 -97 36 -99 52 0 9 -2 27 -3 41 -2 14 -8 72 -14 130 -47 452 -48 499 -11
523 12 7 20 23 20 39 0 14 7 33 15 42 8 8 15 27 15 43 0 18 12 39 30 57 62 61
110 199 110 318 0 55 -25 125 -50 138 -21 11 -16 70 7 70 13 0 13 3 -1 25 -16
24 -16 25 5 25 l21 0 -22 35 c-17 28 -19 35 -7 35 9 0 17 -6 20 -12 2 -7 8
-10 12 -6 7 6 -7 58 -30 111 -5 13 -2 17 14 17 12 0 21 4 21 8 0 5 -18 38 -40
75 -22 36 -40 69 -40 73 0 6 55 -1 93 -12 9 -3 17 -1 17 5 0 14 -156 208 -176
219 -22 12 -9 32 20 32 30 0 105 31 89 37 -7 2 -10 10 -7 17 3 8 -11 23 -33
37 -21 12 -40 24 -42 26 -2 1 4 12 15 24 l19 21 -62 -7 c-59 -7 -63 -6 -63 13
0 12 5 33 10 48 6 15 9 29 7 31 -3 2 -27 -5 -55 -16 l-51 -20 -6 47 c-3 26 -7
53 -8 61 -1 8 -8 16 -15 19 -7 2 -12 0 -11 -5 1 -4 0 -21 -1 -38 -2 -29 -2
-29 -15 10 -7 22 -20 63 -29 92 -9 28 -21 64 -27 80 l-11 28 -20 -45 c-12 -25
-23 -67 -26 -93 -9 -94 -33 -38 -81 196 -7 31 -16 57 -21 57 -4 0 -18 -21 -31
-47 -12 -27 -29 -58 -37 -71 -15 -23 -16 -23 -33 35 -9 32 -20 72 -24 88 -7
27 -8 28 -15 10 -9 -24 -14 -14 -28 55 l-9 45 -17 -40 c-10 -22 -28 -70 -41
-107 -38 -110 -40 -111 -69 -44 -14 32 -26 63 -26 69 0 24 -165 157 -194 157
-3 0 -6 -24 -5 -52z m-251 -1037 c-15 -30 -121 -122 -157 -137 -18 -8 -45 -14
-60 -14 -22 0 -25 -2 -13 -10 8 -5 10 -10 4 -10 -6 0 -14 3 -18 7 -3 4 -16 8
-27 10 -16 2 -20 -1 -15 -14 6 -14 4 -14 -16 3 l-22 19 17 -28 c10 -15 15 -33
11 -39 -4 -6 -3 -8 3 -5 6 4 19 -3 29 -15 18 -20 18 -21 1 -15 -68 25 -102 10
-48 -21 17 -9 31 -23 31 -29 0 -15 38 -17 59 -4 7 5 11 13 7 19 -9 15 21 34
44 27 22 -7 27 -31 8 -38 -7 -2 -2 -2 10 0 13 2 21 0 19 -5 -3 -4 6 -7 21 -7
15 1 41 -8 57 -20 32 -24 64 -23 45 0 -16 20 2 27 79 32 45 3 62 1 52 -5 -8
-6 -21 -8 -30 -5 -10 3 -12 1 -6 -4 6 -4 17 -17 25 -27 13 -18 13 -19 0 -11
-12 6 -12 5 -3 -5 12 -13 45 -11 158 13 38 8 71 20 73 26 2 6 8 11 14 11 5 0
16 6 24 14 7 8 19 16 26 19 10 4 11 7 1 18 -21 22 -15 31 16 24 24 -5 36 -1
60 23 17 16 31 32 31 36 0 4 12 17 26 30 24 20 25 25 14 47 -11 20 -11 22 1
13 8 -6 40 -21 71 -33 31 -13 64 -31 74 -42 16 -18 16 -19 1 -13 -25 9 -21 -6
11 -40 l27 -29 -33 22 c-29 20 -32 21 -28 4 10 -44 19 -63 32 -63 16 0 18 -9
4 -30 -9 -13 -11 -13 -19 0 -9 12 -11 12 -16 -2 -4 -9 -24 -35 -46 -58 -21
-22 -39 -47 -39 -54 0 -7 -18 -19 -40 -26 -27 -9 -40 -19 -40 -31 0 -10 -9
-21 -21 -24 -11 -4 -25 -18 -31 -31 -6 -13 -15 -24 -20 -24 -4 0 -8 -9 -8 -20
0 -11 -4 -20 -10 -20 -5 0 -10 5 -10 11 0 6 -7 9 -15 5 -8 -3 -30 1 -49 9 -60
25 -72 21 -85 -32 -7 -27 -18 -61 -26 -78 -7 -16 -19 -44 -26 -61 -9 -23 -18
-30 -31 -26 -14 3 -17 0 -12 -12 3 -9 2 -16 -4 -16 -6 0 -13 -13 -17 -29 -3
-16 -13 -35 -21 -42 -8 -6 -14 -23 -14 -38 0 -17 -8 -32 -24 -41 -23 -15 -23
-15 -5 -45 13 -20 19 -24 19 -13 0 9 -4 20 -10 23 -15 9 -12 22 5 22 8 0 12
-4 9 -9 -3 -5 2 -21 12 -35 12 -19 13 -28 6 -31 -7 -2 -12 -9 -12 -17 0 -9
-12 -11 -45 -7 -30 3 -45 1 -45 -7 0 -6 7 -11 15 -11 8 0 15 -4 15 -10 0 -14
-1 -13 -54 15 -25 13 -48 25 -51 25 -3 0 -10 0 -16 0 -5 0 -7 5 -3 11 4 8 -1
9 -16 4 -15 -5 -20 -4 -16 4 5 8 -18 11 -76 12 -56 1 -72 4 -48 8 63 11 17 17
-87 11 -56 -3 -107 -10 -114 -17 -6 -6 -13 -30 -15 -54 -3 -24 -12 -68 -21
-97 -8 -29 -13 -55 -11 -57 2 -3 20 15 38 40 19 25 42 45 51 45 10 0 20 4 23
9 8 13 68 20 115 14 31 -4 41 -10 41 -24 0 -10 8 -23 18 -28 15 -9 15 -10 0
-11 -11 0 -19 -14 -26 -52 -5 -29 -11 -59 -13 -67 -2 -7 2 -16 9 -18 8 -3 12
9 12 41 0 28 4 46 12 46 6 0 8 -3 5 -6 -3 -4 5 -15 18 -26 25 -20 46 -19 94 5
19 9 25 9 36 -6 7 -9 17 -17 22 -17 5 0 21 -12 35 -27 14 -16 34 -34 44 -41
17 -12 17 -12 -9 -9 -15 3 -30 0 -34 -6 -4 -6 16 -8 58 -4 41 4 57 3 44 -3
-27 -12 -116 -12 -135 0 -11 7 -11 10 -2 10 7 0 10 4 7 10 -3 5 -29 7 -57 4
-33 -3 -54 0 -58 7 -5 6 -47 13 -101 15 -52 2 -105 7 -119 11 -26 6 -38 6 -78
-3 -15 -3 -22 -10 -19 -19 4 -9 -9 -21 -36 -34 -22 -11 -42 -19 -43 -18 -1 2
-31 131 -58 252 -9 39 -30 131 -47 205 -43 188 -50 237 -56 383 -4 118 -3 127
14 127 14 0 15 -2 4 -9 -10 -7 -11 -15 -3 -37 l10 -29 1 26 c1 24 6 27 49 33
26 4 56 10 67 13 19 5 19 4 2 -9 -17 -12 -16 -14 13 -32 17 -10 38 -15 46 -12
23 9 16 -17 -16 -60 -33 -44 -35 -57 -18 -156 9 -53 21 -85 49 -127 l38 -56
-55 -48 c-36 -33 -54 -56 -54 -72 0 -35 13 -37 34 -7 10 15 35 38 55 51 34 22
43 23 146 18 109 -5 209 -25 274 -54 18 -8 39 -16 45 -18 6 -1 19 -5 29 -10
25 -10 31 -1 15 24 -7 12 -34 28 -60 36 -25 7 -57 19 -69 26 -42 22 -133 38
-224 40 l-90 1 85 15 c92 15 147 38 164 68 6 11 17 25 23 33 31 33 28 112 -6
153 -14 17 -21 20 -36 12 -10 -6 -26 -7 -34 -3 -9 4 -29 14 -46 22 -50 25 -83
29 -117 15 -42 -18 -107 -60 -135 -89 l-23 -23 0 23 c0 13 4 20 10 17 6 -4 10
7 9 27 0 27 -2 30 -9 13 -8 -18 -9 -18 -9 5 -1 14 12 41 28 60 15 19 50 78 76
130 26 52 53 98 59 103 7 5 6 11 -6 18 -10 5 -18 16 -18 23 0 8 -6 26 -14 41
-12 23 -21 27 -68 30 -103 6 -222 54 -205 82 15 25 156 57 362 84 50 7 131 17
180 24 132 18 127 18 115 -4z m460 -21 c8 -5 11 -10 5 -10 -5 0 -17 5 -25 10
-8 5 -10 10 -5 10 6 0 17 -5 25 -10z m-165 -130 c4 -6 10 -8 15 -5 11 7 60
-15 60 -27 0 -13 -29 -9 -63 9 -25 13 -58 17 -149 18 -64 0 -109 3 -100 7 28
11 230 9 237 -2z m-1031 -21 c-8 -14 -24 -10 -24 6 0 9 6 12 15 9 8 -4 12 -10
9 -15z m756 1 c-8 -5 -19 -10 -25 -10 -5 0 -3 5 5 10 8 5 20 10 25 10 6 0 3
-5 -5 -10z m215 -22 c14 -6 25 -15 25 -19 0 -17 -33 -39 -58 -39 -15 0 -38 -3
-51 -7 -21 -5 -22 -4 -12 15 6 11 11 30 11 41 0 17 6 21 30 21 16 0 41 -5 55
-12z m-877 -53 c31 -21 32 -24 15 -33 -13 -8 -1 -9 47 -6 73 5 71 -1 -4 -11
-37 -5 -57 -14 -78 -37 -21 -22 -28 -26 -28 -13 0 21 19 57 38 71 13 9 13 12
-2 17 -10 4 -15 3 -11 -3 12 -19 -35 -10 -56 11 -19 19 -20 19 -15 2 16 -53
28 -114 24 -119 -7 -6 -33 59 -43 104 -6 28 -3 33 17 41 28 12 52 5 96 -24z
m952 25 c0 -5 -7 -10 -15 -10 -8 0 -15 5 -15 10 0 6 7 10 15 10 8 0 15 -4 15
-10z m-280 -15 c0 -8 -7 -15 -15 -15 -8 0 -15 7 -15 15 0 8 7 15 15 15 8 0 15
-7 15 -15z m-30 -36 c0 -5 -10 -9 -21 -9 -18 0 -19 2 -9 15 12 15 30 12 30 -6z
m779 -39 c-1 -20 -2 -21 -6 -5 -3 11 -9 24 -14 30 -5 5 -9 16 -9 24 0 11 4 10
15 -5 8 -10 14 -30 14 -44z m-1224 -32 c14 -6 25 -14 25 -18 0 -10 -37 -20
-74 -20 -22 0 -27 4 -22 16 3 9 6 20 6 25 0 13 34 11 65 -3z m-165 -19 c0 -5
-4 -9 -10 -9 -5 0 -10 7 -10 16 0 8 5 12 10 9 6 -3 10 -10 10 -16z m1401 -10
c-5 -13 -10 -19 -10 -12 -1 15 10 45 15 40 3 -2 0 -15 -5 -28z m425 9 c5 -8
-3 -9 -29 -5 -22 3 -37 2 -37 -4 0 -6 -5 -7 -11 -3 -8 4 -7 9 2 15 20 13 67
11 75 -3z m54 -8 c0 -5 -2 -10 -4 -10 -3 0 -8 5 -11 10 -3 6 -1 10 4 10 6 0
11 -4 11 -10z m-1890 -31 c0 -5 -4 -9 -10 -9 -5 0 -10 7 -10 16 0 8 5 12 10 9
6 -3 10 -10 10 -16z m1860 -123 c0 -5 -9 -1 -20 9 -11 10 -23 15 -28 10 -4 -4
-1 -10 6 -12 6 -3 12 -17 11 -31 0 -16 -3 -21 -6 -12 -3 8 -17 27 -31 42 l-25
27 24 9 c19 7 29 5 46 -12 13 -11 23 -25 23 -30z m110 22 c0 -13 -23 -5 -28
10 -2 7 2 10 12 6 9 -3 16 -11 16 -16z m-1660 -75 c-8 -3 -24 -10 -35 -15 -20
-9 -20 -9 -1 6 11 9 27 16 35 15 14 0 14 -1 1 -6z m1117 -9 c-3 -3 -12 -4 -19
-1 -8 3 -5 6 6 6 11 1 17 -2 13 -5z m-1072 -14 c3 -5 -1 -10 -9 -10 -9 0 -16
5 -16 10 0 6 4 10 9 10 6 0 13 -4 16 -10z m1128 3 c-7 -2 -19 -2 -25 0 -7 3
-2 5 12 5 14 0 19 -2 13 -5z m-1049 -29 c5 -12 2 -15 -10 -10 -8 3 -22 6 -30
6 -9 0 -12 5 -9 10 10 16 42 12 49 -6z m709 -83 c13 -5 30 -24 37 -43 8 -18
17 -35 20 -38 3 -3 16 -25 27 -50 37 -77 45 -85 97 -81 31 2 56 -3 73 -14 14
-10 36 -15 50 -12 l26 5 -5 -70 c-4 -52 -10 -72 -24 -83 -25 -19 -77 -37 -69
-25 4 6 2 10 -4 10 -6 0 -19 17 -30 39 -41 80 -165 180 -205 165 -8 -3 -16 3
-19 15 -3 12 -1 21 4 21 5 0 9 23 9 50 0 38 -4 50 -15 50 -21 0 -29 24 -15 49
12 24 11 24 43 12z m738 -48 c-12 -20 -14 -14 -5 12 4 9 9 14 11 11 3 -2 0
-13 -6 -23z m20 -6 c-10 -9 -11 -8 -5 6 3 10 9 15 12 12 3 -3 0 -11 -7 -18z
m-21 -37 c0 -7 -32 -37 -65 -60 -20 -14 -20 -14 -2 7 14 16 15 22 5 27 -7 3
-2 3 11 0 17 -5 21 -3 16 6 -6 9 -4 11 5 5 9 -6 12 -4 8 7 -4 9 0 15 8 15 8 0
14 -3 14 -7z m-403 -122 c-3 -7 -5 -2 -5 12 0 14 2 19 5 13 2 -7 2 -19 0 -25z
m-1482 -90 l17 -68 -31 -31 c-17 -17 -31 -37 -31 -44 0 -7 -4 -15 -8 -17 -16
-7 -73 -110 -103 -189 -29 -74 -32 -93 -35 -218 -3 -112 -7 -149 -28 -213 -33
-100 -81 -186 -118 -208 -19 -11 -25 -19 -16 -22 7 -3 -13 -14 -44 -26 -86
-32 -178 -26 -247 17 -55 33 -95 74 -119 120 -33 64 -70 172 -81 236 -7 39
-19 100 -28 136 l-16 67 34 39 c93 108 269 242 406 311 93 47 259 111 305 118
49 8 108 47 108 72 0 31 18 -8 35 -80z m977 -17 c-13 -8 -4 -81 9 -81 5 0 9 5
9 12 0 6 3 8 6 5 4 -4 1 -13 -6 -22 -14 -17 -6 -65 13 -78 7 -5 2 -6 -10 -2
-18 5 -23 2 -23 -13 0 -11 6 -22 13 -25 18 -6 -10 -37 -34 -37 -11 0 -19 -4
-19 -8 0 -10 -65 -42 -86 -42 -11 0 -13 6 -9 20 7 22 -20 29 -28 8 -3 -8 -6
-6 -6 5 -1 9 4 17 9 17 6 0 16 11 22 25 6 14 22 28 35 31 13 4 23 10 23 15 0
5 9 9 19 9 39 0 39 87 0 141 -10 15 -19 30 -19 32 0 3 19 7 43 9 41 3 60 -8
39 -21z m-790 -123 c-7 -7 -12 -8 -12 -2 0 14 12 26 19 19 2 -3 -1 -11 -7 -17z
m345 -68 c1 -11 -2 -22 -8 -25 -10 -7 -13 28 -2 38 9 9 9 10 10 -13z m-315
-112 c-7 -7 -12 -8 -12 -2 0 14 12 26 19 19 2 -3 -1 -11 -7 -17z m-101 -188
c-13 -11 -30 -20 -39 -20 -13 0 -12 3 3 20 10 11 28 20 39 20 20 -1 20 -1 -3
-20z m-51 -34 c0 -11 -19 -15 -25 -6 -3 5 1 10 9 10 9 0 16 -2 16 -4z m60 -70
c0 -7 -12 -21 -26 -31 -27 -17 -25 -8 5 27 19 22 21 22 21 4z m120 -123 c0 -7
9 -13 20 -13 20 0 62 -64 109 -164 12 -26 33 -66 47 -88 28 -44 66 -179 55
-191 -5 -5 -23 16 -42 45 -43 68 -54 79 -71 73 -8 -3 -21 2 -30 12 -21 24 -85
151 -93 185 -4 16 -10 26 -14 24 -3 -2 -6 21 -6 52 0 32 -4 75 -8 97 l-8 40
20 -30 c12 -16 21 -36 21 -42z m-35 -49 c5 -34 4 -46 -3 -39 -6 6 -13 37 -16
70 -7 71 8 46 19 -31z m-38 54 c-3 -8 -6 -5 -6 6 -1 11 2 17 5 13 3 -3 4 -12
1 -19z m68 -212 c8 -25 10 -46 6 -46 -5 0 -11 12 -15 28 -3 15 -9 38 -12 52
-12 44 7 14 21 -34z m65 -147 c12 -23 19 -43 16 -46 -3 -3 -12 11 -20 31 -8
20 -20 36 -26 36 -6 0 -8 5 -5 10 10 16 13 13 35 -31z m91 -52 c-10 -9 -11 -8
-5 6 3 10 9 15 12 12 3 -3 0 -11 -7 -18z m-151 -41 c0 -26 -6 -18 -14 19 -5
22 -4 26 4 15 5 -8 10 -24 10 -34z m-960 20 c0 -11 -90 -53 -96 -45 -8 13 -5
15 36 33 34 15 60 20 60 12z m1070 -16 c6 -11 8 -20 6 -20 -3 0 -10 9 -16 20
-6 11 -8 20 -6 20 3 0 10 -9 16 -20z m94 -135 l38 -50 -41 45 c-23 25 -41 49
-41 54 0 5 1 7 3 5 1 -2 20 -26 41 -54z m1980 -63 c14 -21 26 -47 25 -58 0
-18 -1 -18 -8 1 -5 11 -18 29 -30 39 -11 11 -21 27 -21 38 0 25 4 23 34 -20z
m-41 -20 c2 8 8 9 13 4 5 -5 4 -11 -4 -13 -9 -3 -6 -13 9 -34 11 -16 25 -45
30 -64 6 -19 14 -35 19 -35 5 0 7 8 3 18 -3 9 -3 14 1 10 5 -4 10 -24 12 -45
2 -21 1 -31 -2 -23 -4 8 -15 24 -25 35 -10 12 -20 30 -21 40 -2 11 -19 43 -38
70 -19 28 -27 44 -18 37 13 -10 17 -10 21 0z m-78 -60 c-3 -3 -11 0 -18 7 -9
10 -8 11 6 5 10 -3 15 -9 12 -12z m95 -30 c0 -12 -3 -13 -12 -4 -6 6 -13 19
-14 27 -2 13 1 14 12 4 8 -6 14 -19 14 -27z m109 7 c19 -25 21 -33 10 -40 -11
-7 -11 -9 -1 -9 7 0 10 -5 6 -11 -9 -16 -41 27 -46 63 -6 36 3 35 31 -3z
m-1793 -12 c8 3 14 -1 14 -8 0 -11 3 -11 10 1 8 13 11 11 16 -7 4 -13 12 -23
19 -23 7 0 18 -13 25 -30 7 -16 16 -27 21 -24 5 3 6 -3 2 -12 -5 -14 -3 -16
11 -11 12 5 19 0 26 -18 9 -24 42 -66 73 -94 9 -8 17 -26 17 -38 0 -18 -6 -23
-25 -23 -17 0 -25 6 -25 18 -1 15 -2 15 -15 -2 -8 -11 -15 -14 -15 -7 0 6 -9
21 -20 33 -11 12 -20 28 -20 36 0 7 -7 21 -16 30 -11 10 -13 17 -5 20 15 5 13
33 -3 55 -14 19 -36 23 -36 7 0 -5 -4 -10 -10 -10 -5 0 -10 5 -10 11 0 6 -11
20 -25 31 -14 11 -25 28 -25 38 0 10 -5 22 -10 25 -6 4 -7 12 -3 18 5 8 9 7
11 -5 2 -10 9 -15 18 -11z m179 -42 c6 -5 17 -19 24 -30 7 -11 -8 2 -33 30
-25 27 -46 54 -46 59 0 5 10 -4 22 -20 13 -16 27 -33 33 -39z m1505 -19 c0 -6
-7 -1 -15 10 -8 10 -15 23 -15 28 0 6 7 1 15 -10 8 -10 15 -23 15 -28z m701
-13 c13 -16 12 -17 -3 -4 -17 13 -22 21 -14 21 2 0 10 -8 17 -17z m-661 -18
c7 -9 9 -19 5 -23 -4 -4 -10 -1 -12 6 -8 21 -23 13 -19 -10 3 -13 5 -29 5 -35
2 -22 16 -14 29 17 8 17 17 30 22 30 4 0 16 -26 26 -57 9 -32 21 -63 25 -69 5
-6 16 -44 25 -85 9 -41 20 -92 25 -114 18 -76 27 -169 23 -209 -6 -47 -13 -60
-15 -25 -1 13 -2 29 -4 34 -1 6 -3 22 -3 36 -1 14 -20 55 -41 91 -22 36 -43
77 -47 92 -5 21 -9 24 -15 14 -6 -9 -9 -6 -9 11 0 13 -4 40 -10 60 -28 110
-51 224 -46 237 7 18 20 18 36 -1z m198 -30 c-3 -3 -9 2 -12 12 -6 14 -5 15 5
6 7 -7 10 -15 7 -18z m678 -113 c-7 -7 -46 9 -46 18 0 5 11 4 25 -2 14 -6 23
-13 21 -16z m162 -27 c-41 -56 -66 -64 -113 -36 -20 12 -42 21 -50 21 -8 0
-16 4 -19 9 -4 5 31 8 79 7 75 -1 87 1 107 22 33 33 32 27 -4 -23z m-121 19
c-3 -3 -12 -4 -19 -1 -8 3 -5 6 6 6 11 1 17 -2 13 -5z m-2390 -79 c13 -28 12
-29 -39 -14 -52 14 -51 39 1 39 18 0 30 -8 38 -25z m-122 -43 c99 -22 156 -63
173 -126 6 -20 24 -55 40 -80 43 -64 49 -86 23 -93 -12 -3 -21 -9 -21 -14 0
-5 -5 -9 -11 -9 -6 0 -22 -9 -36 -20 -14 -11 -34 -20 -44 -20 -11 0 -19 -3
-19 -8 0 -14 80 -42 123 -42 50 0 96 -26 117 -66 20 -38 30 -45 57 -39 23 5
73 -37 73 -62 0 -7 6 -16 13 -20 18 -12 35 -53 42 -103 5 -33 3 -41 -4 -30 -6
8 -11 23 -11 33 0 9 -4 17 -10 17 -16 0 -6 -156 12 -174 12 -11 18 -12 20 -4
3 7 10 -8 17 -33 11 -39 10 -53 -4 -97 -10 -29 -21 -52 -25 -52 -5 0 -12 -9
-15 -20 -10 -30 -51 -66 -130 -112 -38 -22 -78 -48 -87 -56 -16 -13 -18 -12
-27 11 -6 15 -17 53 -25 85 -16 60 -33 106 -93 252 -78 186 -149 332 -218 448
-30 51 -55 97 -55 102 0 4 -4 10 -8 12 -7 3 -53 61 -150 192 -13 17 -27 40
-32 51 -4 11 -15 37 -24 58 l-16 37 142 -1 c89 -1 170 -7 213 -17z m1761 -68
c3 -19 9 -32 12 -29 12 12 31 -58 38 -137 5 -69 -5 -231 -20 -314 -2 -10 -7
-40 -10 -66 -15 -104 -21 -45 -18 189 2 199 0 260 -14 322 -28 133 -28 131
-10 98 8 -15 18 -44 22 -63z m-4706 66 c-8 -5 -22 -10 -30 -10 -13 0 -13 1 0
10 8 5 22 10 30 10 13 0 13 -1 0 -10z m3932 -46 c79 -3 131 -21 142 -49 11
-30 6 -85 -10 -118 -21 -40 -31 -47 -69 -47 -37 0 -124 -40 -125 -58 0 -20 72
-85 80 -72 4 7 20 8 41 4 19 -4 51 -7 72 -6 21 1 36 -2 33 -7 -8 -12 14 -13
182 -12 124 1 147 -2 179 -19 21 -11 43 -20 50 -20 17 0 33 -32 34 -67 0 -25
1 -26 9 -8 6 15 9 6 9 -32 1 -49 -11 -70 -22 -40 -3 6 -6 0 -6 -15 -1 -18 -6
-28 -17 -28 -8 0 -13 -4 -10 -9 3 -4 -13 -14 -36 -20 -23 -7 -36 -16 -31 -19
6 -4 -15 -8 -47 -10 -61 -2 -113 -22 -102 -38 4 -5 30 -9 57 -10 92 -1 100 -5
98 -55 0 -24 -4 -64 -6 -89 -3 -25 -3 -36 1 -25 7 21 32 32 32 15 0 -6 -5 -10
-10 -10 -6 0 -10 -8 -8 -17 2 -10 -3 -17 -9 -16 -7 2 -13 -2 -13 -7 0 -6 -10
-10 -23 -10 -13 0 -29 -6 -36 -12 -11 -10 -14 -10 -18 0 -9 23 -23 12 -23 -18
0 -27 -3 -30 -31 -30 -24 0 -30 4 -25 15 4 12 -4 15 -39 15 -25 0 -45 -4 -45
-10 0 -5 -18 -10 -40 -10 -22 0 -40 5 -40 10 0 6 18 10 40 10 29 0 40 4 40 15
0 8 -8 15 -17 15 -10 0 -27 7 -37 15 -11 8 -39 15 -63 15 -24 0 -43 5 -43 10
0 15 -38 12 -47 -3 -4 -7 -19 -18 -33 -24 l-25 -12 26 0 c43 -1 49 -41 6 -41
-10 0 -32 -9 -47 -20 -22 -16 -45 -21 -99 -21 -39 -1 -71 -5 -71 -10 0 -5 7
-9 15 -9 8 0 15 -4 15 -10 0 -14 -21 -11 -55 9 -25 15 -32 27 -41 77 -7 32
-12 51 -13 42 -1 -9 -6 -20 -13 -24 -6 -4 -9 -3 -5 2 3 5 -5 56 -18 114 -24
112 -41 234 -26 190 9 -25 9 -24 10 6 1 17 12 58 26 92 14 34 25 70 25 81 0
12 6 18 18 17 13 -1 17 7 17 29 0 17 5 33 10 37 6 4 -12 8 -39 8 -43 0 -53 4
-87 38 -21 22 -40 34 -42 28 -6 -18 -37 51 -37 81 1 26 2 25 15 -10 20 -58 26
-57 19 4 -9 82 28 136 111 161 22 6 47 17 55 23 28 23 75 34 115 28 22 -3 75
-7 117 -9z m645 -36 c-3 -7 -5 -2 -5 12 0 14 2 19 5 13 2 -7 2 -19 0 -25z
m-26 -81 c-10 -9 -11 -8 -5 6 3 10 9 15 12 12 3 -3 0 -11 -7 -18z m-1062 -41
c-11 -20 -17 -36 -12 -36 5 0 9 -21 7 -47 -1 -31 6 -70 21 -108 13 -33 26 -73
29 -90 3 -16 12 -56 20 -87 8 -32 10 -58 5 -58 -5 0 -9 6 -9 14 0 7 -14 39
-31 72 -21 38 -34 82 -40 127 -5 37 -13 76 -19 85 -9 14 -10 13 -5 -8 3 -14 8
-43 10 -65 l5 -40 -11 37 c-7 24 -15 35 -24 32 -15 -6 -68 95 -70 134 -1 19 6
28 30 37 16 7 39 16 50 20 11 4 28 7 38 6 9 -1 17 3 17 10 0 7 2 10 5 7 3 -3
-4 -22 -16 -42z m1080 -39 c1 -10 -3 -15 -9 -12 -5 3 -10 23 -9 43 1 33 2 34
9 12 4 -14 8 -33 9 -43z m216 -172 c4 -49 16 -128 27 -175 15 -65 18 -101 13
-155 -9 -99 -13 -111 -42 -124 l-26 -12 6 101 c3 55 2 102 -3 105 -8 5 -20
-91 -20 -161 0 -47 -16 -101 -27 -90 -4 4 -6 26 -6 49 2 38 1 40 -6 12 -11
-37 -30 -83 -30 -72 -1 10 18 96 26 117 3 8 7 22 8 30 2 8 10 49 19 90 25 111
46 263 46 327 0 82 7 62 15 -42z m-1385 34 c16 -30 8 -31 -13 -3 -10 13 -13
24 -8 24 6 0 15 -9 21 -21z m1287 -41 c-3 -7 -5 -2 -5 12 0 14 2 19 5 13 2 -7
2 -19 0 -25z m-1253 -24 c3 -8 2 -12 -4 -9 -6 3 -10 10 -10 16 0 14 7 11 14
-7z m-486 -156 c-4 -10 -58 93 -58 109 0 4 14 -16 31 -45 16 -29 29 -58 27
-64z m2131 -3 c0 -5 -4 -3 -9 5 -5 8 -9 22 -9 30 0 16 17 -16 18 -35z m-1483
-22 c-11 -11 -17 4 -9 23 7 18 8 18 11 1 2 -10 1 -21 -2 -24z m-479 -376 c66
-183 69 -196 49 -235 -19 -37 -20 -46 -4 -36 7 4 8 3 4 -4 -3 -6 -1 -32 5 -57
17 -68 3 -67 -16 1 -9 33 -34 115 -55 184 -53 170 -58 198 -26 135 38 -75 21
-8 -20 80 -28 60 -105 280 -103 295 2 20 122 -243 166 -363z m1420 241 c-3 -8
-6 -5 -6 6 -1 11 2 17 5 13 3 -3 4 -12 1 -19z m304 -66 c-4 -54 -11 -53 -11 3
0 27 3 45 7 41 4 -4 6 -24 4 -44z m-316 8 c-4 -12 -9 -19 -12 -17 -3 3 -2 15
2 27 4 12 9 19 12 17 3 -3 2 -15 -2 -27z m642 -37 c-3 -10 -5 -2 -5 17 0 19 2
27 5 18 2 -10 2 -26 0 -35z m-520 -55 c-3 -7 -5 -2 -5 12 0 14 2 19 5 13 2 -7
2 -19 0 -25z m-1018 -113 c14 -124 33 -166 96 -205 27 -17 33 -25 23 -31 -19
-13 -36 -11 -18 2 13 9 13 10 0 6 -26 -7 -44 -50 -35 -83 l9 -29 6 35 c6 33 7
31 17 -30 5 -36 9 -103 8 -149 -3 -81 11 -144 34 -153 6 -2 6 -21 1 -47 -4
-24 -7 -55 -5 -68 2 -21 -1 -24 -29 -21 l-31 3 -2 75 c-10 308 -18 380 -47
413 -22 25 -44 38 -32 18 3 -4 -6 -6 -20 -3 -15 3 -23 10 -20 18 7 18 -19 21
-83 12 -60 -10 -78 -4 -37 12 15 5 25 14 22 18 -6 11 41 38 50 29 12 -12 64
22 58 38 -4 9 1 18 11 21 14 6 16 20 9 123 -3 64 -4 114 -1 111 3 -3 10 -54
16 -115z m1548 73 c-3 -7 -5 -2 -5 12 0 14 2 19 5 13 2 -7 2 -19 0 -25z m-666
-1 c-10 -9 -11 -8 -5 6 3 10 9 15 12 12 3 -3 0 -11 -7 -18z m-481 3 c0 -5 -11
-10 -25 -10 -14 0 -25 5 -25 10 0 6 11 10 25 10 14 0 25 -4 25 -10z m597 -62
c-3 -8 -6 -5 -6 6 -1 11 2 17 5 13 3 -3 4 -12 1 -19z m-950 -70 c-3 -8 -6 -5
-6 6 -1 11 2 17 5 13 3 -3 4 -12 1 -19z m158 12 c-3 -5 -12 -10 -18 -10 -7 0
-6 4 3 10 19 12 23 12 15 0z m855 -48 c0 -10 -7 -27 -15 -38 -16 -21 -20 -8
-9 34 8 26 24 29 24 4z m-926 -81 c-2 -3 -12 3 -22 13 -16 17 -16 18 5 5 12
-7 20 -15 17 -18z m1766 -11 c0 -5 -4 -10 -10 -10 -5 0 -10 5 -10 10 0 6 5 10
10 10 6 0 10 -4 10 -10z m-1335 -47 c4 -10 7 -28 6 -41 -2 -14 4 -24 16 -29
18 -6 63 -51 63 -62 0 -3 -10 -34 -22 -68 -17 -46 -28 -63 -41 -63 -10 0 -25
-7 -34 -15 -14 -14 -17 -14 -33 0 -14 13 -19 14 -24 3 -5 -10 -7 -10 -12 0 -3
6 -11 12 -17 12 -19 -1 -67 -47 -67 -65 0 -8 -7 -15 -15 -15 -10 0 -15 10 -15
26 0 26 -1 26 -24 10 -18 -11 -26 -12 -29 -3 -3 9 -7 9 -20 -1 -13 -11 -18 -9
-33 14 -16 24 -19 25 -25 8 -6 -16 -8 -14 -8 7 -1 15 -8 42 -16 62 -8 19 -11
37 -8 41 4 3 1 6 -5 6 -18 0 -14 31 6 47 12 10 13 16 5 19 -8 4 -5 13 12 30
13 13 28 24 32 24 5 0 16 8 25 18 42 44 46 45 189 50 75 3 87 1 94 -15z m382
-35 c-3 -7 -5 -2 -5 12 0 14 2 19 5 13 2 -7 2 -19 0 -25z m-1117 -28 c-26 -16
6 -57 50 -64 35 -5 40 -10 53 -53 9 -27 18 -83 20 -126 5 -67 3 -79 -11 -83
-9 -3 -30 -12 -45 -20 -16 -7 -41 -14 -56 -14 -15 0 -31 -4 -37 -10 -12 -12
-56 -1 -47 13 3 5 2 7 -4 4 -18 -11 -42 17 -48 55 -6 39 -47 190 -61 222 -5
14 -4 17 4 12 7 -4 17 -4 23 0 7 4 2 11 -12 18 -12 6 -24 18 -26 26 -4 13 -3
13 6 0 8 -12 15 -12 46 -1 19 7 50 10 68 7 17 -3 26 -3 20 0 -27 12 -11 24 30
24 29 0 38 -3 27 -10z m1066 -24 c0 -14 -5 -21 -9 -17 -4 4 -5 15 -1 24 9 24
12 21 10 -7z m-231 -18 c-4 13 -2 22 4 22 12 0 14 -29 5 -55 -6 -14 -10 -10
-20 15 -18 42 -17 51 2 20 14 -23 14 -23 9 -2z m46 -27 c-12 -22 -21 -45 -21
-52 0 -6 -7 -35 -16 -65 -14 -49 -17 -53 -35 -43 -11 5 -17 15 -13 21 4 7 9 6
14 -2 10 -16 16 -4 25 44 6 28 5 37 -4 32 -7 -5 -11 1 -11 16 0 18 2 20 10 8
11 -17 11 -17 40 43 12 26 24 46 27 43 2 -2 -5 -22 -16 -45z m-568 -126 c3
-49 2 -79 -2 -65 -4 14 -10 70 -13 125 -3 56 -2 85 2 65 4 -19 10 -75 13 -125z
m608 118 c-12 -20 -14 -14 -5 12 4 9 9 14 11 11 3 -2 0 -13 -6 -23z m121 -45
c-7 -7 -12 -8 -12 -2 0 14 12 26 19 19 2 -3 -1 -11 -7 -17z m-3 -88 c-11 -30
-17 -41 -14 -25 6 34 26 87 31 83 1 -2 -6 -28 -17 -58z m-279 -10 c0 -5 -4
-10 -10 -10 -5 0 -10 5 -10 10 0 6 5 10 10 10 6 0 10 -4 10 -10z m100 -27
c-11 -17 -11 -17 -6 0 3 10 6 24 7 30 0 9 2 9 5 0 3 -7 0 -20 -6 -30z m50 13
c0 -2 -8 -10 -17 -17 -16 -13 -17 -12 -4 4 13 16 21 21 21 13z m123 -51 c-3
-9 -8 -14 -10 -11 -3 3 -2 9 2 15 9 16 15 13 8 -4z m-463 -15 c0 -5 -4 -10 -9
-10 -6 0 -13 5 -16 10 -3 6 1 10 9 10 9 0 16 -4 16 -10z m230 -80 c0 -5 -5
-10 -11 -10 -5 0 -7 5 -4 10 3 6 8 10 11 10 2 0 4 -4 4 -10z m35 -70 c-3 -5
-12 -10 -18 -10 -7 0 -6 4 3 10 19 12 23 12 15 0z"/>
<path d="M2818 4463 c7 -3 16 -2 19 1 4 3 -2 6 -13 5 -11 0 -14 -3 -6 -6z"/>
<path d="M3181 4224 c0 -11 3 -14 6 -6 3 7 2 16 -1 19 -3 4 -6 -2 -5 -13z"/>
<path d="M3146 4187 c-10 -40 -8 -50 9 -33 17 16 20 42 6 50 -5 3 -11 -4 -15
-17z"/>
<path d="M2716 3835 c-3 -8 -1 -15 4 -15 13 0 22 18 11 24 -5 3 -11 -1 -15 -9z"/>
<path d="M2766 3814 c-9 -23 -8 -24 14 -24 13 0 20 7 20 20 0 24 -25 27 -34 4z"/>
<path d="M2908 3783 c7 -3 16 -2 19 1 4 3 -2 6 -13 5 -11 0 -14 -3 -6 -6z"/>
<path d="M2512 3620 c-23 -30 -28 -50 -14 -50 9 0 45 70 39 76 -2 2 -13 -10
-25 -26z"/>
<path d="M2475 3530 c-3 -5 -1 -10 4 -10 6 0 11 5 11 10 0 6 -2 10 -4 10 -3 0
-8 -4 -11 -10z"/>
<path d="M2218 4553 c7 -3 16 -2 19 1 4 3 -2 6 -13 5 -11 0 -14 -3 -6 -6z"/>
<path d="M3271 3624 c0 -11 3 -14 6 -6 3 7 2 16 -1 19 -3 4 -6 -2 -5 -13z"/>
<path d="M2590 2975 c0 -10 40 -75 47 -75 2 0 -6 17 -18 38 -28 45 -29 47 -29
37z"/>
<path d="M3030 2251 c0 -6 4 -13 10 -16 6 -3 7 1 4 9 -7 18 -14 21 -14 7z"/>
<path d="M4000 1550 c0 -5 18 -10 40 -10 22 0 40 5 40 10 0 6 -18 10 -40 10
-22 0 -40 -4 -40 -10z"/>
<path d="M4528 1483 c6 -2 18 -2 25 0 6 3 1 5 -13 5 -14 0 -19 -2 -12 -5z"/>
<path d="M4500 1145 c0 -8 5 -15 10 -15 6 0 10 7 10 15 0 8 -4 15 -10 15 -5 0
-10 -7 -10 -15z"/>
<path d="M3900 901 c0 -11 4 -22 9 -25 4 -3 6 6 3 19 -5 30 -12 33 -12 6z"/>
<path d="M3226 1117 c3 -10 9 -15 12 -12 3 3 0 11 -7 18 -10 9 -11 8 -5 -6z"/>
<path d="M3240 1074 c0 -6 7 -19 16 -30 14 -18 14 -18 3 6 -14 31 -19 36 -19
24z"/>
<path d="M3578 263 c7 -3 16 -2 19 1 4 3 -2 6 -13 5 -11 0 -14 -3 -6 -6z"/>
<path d="M3630 250 c0 -5 5 -10 10 -10 6 0 10 5 10 10 0 6 -4 10 -10 10 -5 0
-10 -4 -10 -10z"/>
<path d="M2289 3179 l-24 -20 28 17 c15 9 27 18 27 20 0 8 -8 4 -31 -17z"/>
<path d="M2290 3155 c0 -7 30 -13 34 -7 3 4 -4 9 -15 9 -10 1 -19 0 -19 -2z"/>
<path d="M4150 3140 c14 -11 31 -20 38 -20 6 0 12 -4 12 -9 0 -11 30 -19 48
-14 22 8 12 23 -15 23 -16 0 -41 9 -58 20 -39 26 -58 26 -25 0z"/>
<path d="M4245 3080 c-3 -5 0 -7 8 -5 7 3 19 -5 27 -20 7 -14 16 -23 18 -20 3
3 -1 16 -8 30 -14 26 -34 33 -45 15z"/>
<path d="M2253 2985 c0 -33 2 -45 4 -27 2 18 2 45 0 60 -2 15 -4 0 -4 -33z"/>
<path d="M4250 3012 c0 -5 7 -15 15 -22 8 -7 15 -8 15 -2 0 5 -7 15 -15 22 -8
7 -15 8 -15 2z"/>
<path d="M4322 3008 c8 -7 31 -29 51 -47 20 -19 37 -32 37 -28 0 14 -73 87
-87 87 -12 0 -12 -2 -1 -12z"/>
<path d="M4300 2982 c0 -5 7 -13 16 -16 10 -4 14 -1 12 6 -5 15 -28 23 -28 10z"/>
<path d="M2221 2874 c0 -11 3 -14 6 -6 3 7 2 16 -1 19 -3 4 -6 -2 -5 -13z"/>
<path d="M2192 2825 c0 -16 2 -22 5 -12 2 9 2 23 0 30 -3 6 -5 -1 -5 -18z"/>
<path d="M2231 2834 c0 -11 3 -14 6 -6 3 7 2 16 -1 19 -3 4 -6 -2 -5 -13z"/>
<path d="M2171 2814 c0 -11 3 -14 6 -6 3 7 2 16 -1 19 -3 4 -6 -2 -5 -13z"/>
<path d="M2202 2695 c0 -16 2 -22 5 -12 2 9 2 23 0 30 -3 6 -5 -1 -5 -18z"/>
<path d="M2280 2700 c0 -5 5 -10 11 -10 5 0 7 5 4 10 -3 6 -8 10 -11 10 -2 0
-4 -4 -4 -10z"/>
<path d="M2052 2628 c-5 -18 -14 -32 -20 -31 -5 1 -8 -7 -4 -19 5 -20 5 -20
17 3 14 28 27 79 20 79 -2 0 -8 -15 -13 -32z"/>
<path d="M2102 2640 c0 -14 2 -19 5 -12 2 6 2 18 0 25 -3 6 -5 1 -5 -13z"/>
<path d="M1930 2629 c-7 -11 -10 -23 -7 -25 2 -2 9 7 15 21 14 30 7 33 -8 4z"/>
<path d="M2076 2625 c-3 -9 -6 -24 -5 -33 0 -9 5 -4 10 12 9 32 6 48 -5 21z"/>
<path d="M2110 2580 c0 -11 4 -20 9 -20 5 0 7 9 4 20 -3 11 -7 20 -9 20 -2 0
-4 -9 -4 -20z"/>
<path d="M4571 2564 c0 -11 3 -14 6 -6 3 7 2 16 -1 19 -3 4 -6 -2 -5 -13z"/>
<path d="M2062 2540 c0 -14 2 -19 5 -12 2 6 2 18 0 25 -3 6 -5 1 -5 -13z"/>
<path d="M2317 2525 c3 -22 10 -49 14 -60 6 -13 6 -5 2 20 -3 22 -10 49 -14
60 -6 13 -6 5 -2 -20z"/>
<path d="M2121 2534 c0 -11 3 -14 6 -6 3 7 2 16 -1 19 -3 4 -6 -2 -5 -13z"/>
<path d="M2007 2488 c-9 -30 -17 -61 -16 -69 0 -8 9 13 19 46 11 33 18 64 17
69 -1 4 -10 -16 -20 -46z"/>
<path d="M2201 2524 c0 -11 3 -14 6 -6 3 7 2 16 -1 19 -3 4 -6 -2 -5 -13z"/>
<path d="M2046 2471 c-4 -24 -5 -46 -2 -48 7 -7 19 63 14 79 -3 7 -8 -7 -12
-31z"/>
<path d="M2136 2480 c4 -19 11 -44 15 -55 6 -14 7 -9 3 15 -4 19 -11 44 -15
55 -6 14 -7 9 -3 -15z"/>
<path d="M2221 2454 c0 -11 3 -14 6 -6 3 7 2 16 -1 19 -3 4 -6 -2 -5 -13z"/>
<path d="M5000 2437 c0 -3 31 -10 68 -17 37 -6 98 -26 135 -44 37 -18 67 -29
67 -26 0 11 -92 57 -135 68 -52 13 -135 24 -135 19z"/>
<path d="M2032 2390 c0 -14 2 -19 5 -12 2 6 2 18 0 25 -3 6 -5 1 -5 -13z"/>
<path d="M2015 2320 c-4 -23 -5 -43 -2 -46 2 -3 7 14 11 37 4 23 5 44 2 46 -2
2 -7 -14 -11 -37z"/>
<path d="M834 2340 c-28 -4 -60 -13 -70 -19 -18 -12 -18 -12 0 -6 11 3 46 8
78 12 32 3 58 10 58 14 0 5 -3 8 -7 8 -5 -1 -31 -5 -59 -9z"/>
<path d="M4950 2345 c0 -15 147 -200 247 -310 25 -27 57 -67 71 -87 13 -21 27
-38 29 -38 12 0 -41 72 -111 154 -44 50 -115 135 -158 189 -43 54 -78 95 -78
92z"/>
<path d="M2081 2294 c0 -11 3 -14 6 -6 3 7 2 16 -1 19 -3 4 -6 -2 -5 -13z"/>
<path d="M638 2273 c-27 -13 -48 -29 -48 -35 0 -6 10 -3 23 6 27 20 63 36 102
46 l30 8 -30 0 c-16 0 -51 -11 -77 -25z"/>
<path d="M2371 2279 c-1 -8 6 -24 15 -35 15 -19 15 -19 6 1 -5 11 -12 27 -15
35 -5 13 -6 13 -6 -1z"/>
<path d="M5513 2273 c9 -2 23 -2 30 0 6 3 -1 5 -18 5 -16 0 -22 -2 -12 -5z"/>
<path d="M1231 2239 c-7 -12 -10 -23 -8 -26 3 -3 11 5 17 17 15 28 8 35 -9 9z"/>
<path d="M1995 2215 c-3 -26 -4 -49 -2 -51 3 -3 8 16 12 41 3 26 4 49 2 51 -3
3 -8 -16 -12 -41z"/>
<path d="M2096 2237 c3 -10 9 -15 12 -12 3 3 0 11 -7 18 -10 9 -11 8 -5 -6z"/>
<path d="M500 2214 c-24 -14 -48 -31 -53 -39 -11 -20 7 -19 23 0 7 8 18 15 24
15 6 1 25 12 41 25 38 31 23 31 -35 -1z"/>
<path d="M5878 2178 c-13 -13 -17 -18 -8 -12 8 6 24 16 35 22 11 6 15 12 8 12
-7 0 -22 -10 -35 -22z"/>
<path d="M1851 2179 c-4 -51 59 -333 108 -484 30 -92 24 -42 -8 70 -16 55 -40
154 -54 220 -14 66 -30 140 -35 165 -5 25 -10 38 -11 29z"/>
<path d="M1319 2117 c20 -51 32 -150 33 -269 1 -93 3 -111 8 -73 15 100 -13
344 -41 361 -5 3 -5 -6 0 -19z"/>
<path d="M2081 2074 c0 -11 3 -14 6 -6 3 7 2 16 -1 19 -3 4 -6 -2 -5 -13z"/>
<path d="M2092 2010 c0 -14 2 -19 5 -12 2 6 2 18 0 25 -3 6 -5 1 -5 -13z"/>
<path d="M5860 1970 c-11 -11 -20 -28 -19 -37 0 -14 2 -15 6 -3 8 21 34 39 56
40 24 0 22 20 -3 20 -11 0 -29 -9 -40 -20z"/>
<path d="M2101 1964 c0 -11 3 -14 6 -6 3 7 2 16 -1 19 -3 4 -6 -2 -5 -13z"/>
<path d="M1426 1873 c-35 -159 -71 -371 -63 -379 2 -2 23 95 47 216 23 122 40
223 37 226 -3 3 -12 -25 -21 -63z"/>
<path d="M2112 1920 c0 -14 2 -19 5 -12 2 6 2 18 0 25 -3 6 -5 1 -5 -13z"/>
<path d="M5310 1895 c0 -5 5 -17 10 -25 5 -8 10 -10 10 -5 0 6 -5 17 -10 25
-5 8 -10 11 -10 5z"/>
<path d="M1383 1835 c0 -27 2 -38 4 -22 2 15 2 37 0 50 -2 12 -4 0 -4 -28z"/>
<path d="M2230 1775 c0 -5 5 -17 10 -25 5 -8 10 -10 10 -5 0 6 -5 17 -10 25
-5 8 -10 11 -10 5z"/>
<path d="M2250 1729 c0 -3 16 -55 36 -115 19 -60 37 -125 39 -144 2 -19 16
-66 30 -105 15 -38 44 -137 66 -220 22 -82 55 -197 74 -255 18 -58 36 -121 40
-140 3 -19 15 -71 25 -115 11 -44 28 -120 40 -170 11 -49 26 -111 32 -136 6
-26 8 -54 4 -64 -6 -17 -8 -17 -29 4 -13 11 -29 21 -35 21 -7 0 -12 4 -12 9 0
5 -10 12 -22 15 -13 3 -32 13 -43 21 -16 13 -17 18 -7 24 11 7 11 9 -1 14 -8
3 -18 25 -21 49 -5 32 -18 55 -51 91 -74 80 -92 108 -135 217 -67 167 -71 175
-101 196 -16 10 -27 24 -25 31 3 7 -1 10 -10 6 -7 -3 -14 0 -14 6 0 5 -14 24
-31 42 -17 17 -28 37 -25 45 3 8 1 14 -4 14 -6 0 -10 -6 -11 -12 -1 -15 -10
15 -37 132 -24 102 -28 67 -6 -51 16 -90 39 -176 59 -224 15 -35 65 -185 65
-193 0 -3 -7 3 -15 14 -14 19 -14 19 -15 -1 l-1 -20 -9 20 c-8 20 -9 20 -9 -1
-1 -11 -8 -29 -16 -40 -26 -34 -18 -86 26 -166 5 -10 9 -25 9 -33 0 -8 5 -15
10 -15 6 0 10 -4 10 -10 0 -5 -9 -10 -20 -10 -15 0 -20 -7 -20 -29 0 -29 -22
-61 -41 -61 -5 0 -15 -11 -21 -25 -6 -14 -19 -25 -29 -25 -10 0 -20 -4 -23 -9
-10 -15 -67 -19 -73 -4 -12 32 -18 8 -13 -55 3 -37 7 -69 8 -72 1 -3 149 -4
330 -2 205 2 349 -1 387 -8 123 -22 321 -30 443 -19 64 6 139 10 165 9 55 -1
149 23 166 43 8 11 6 21 -11 42 -11 15 -27 55 -33 89 l-13 61 -1 -55 c-1 -40
5 -63 19 -85 11 -16 20 -37 19 -45 0 -8 -5 -3 -11 13 -11 30 -29 38 -21 8 8
-31 -46 -15 -58 18 -14 37 -53 111 -57 107 -2 -2 6 -32 17 -67 25 -74 25 -75
8 -61 -7 6 -28 13 -45 14 -28 2 -34 7 -42 38 -5 19 -16 62 -25 95 -9 33 -19
70 -22 83 -3 12 -9 22 -12 22 -4 0 5 -48 21 -107 31 -119 32 -127 19 -119 -5
4 -11 2 -13 -4 -2 -6 -20 -7 -47 -2 -41 7 -45 10 -57 52 -8 25 -15 59 -18 75
-4 36 -95 306 -107 320 -16 17 -10 -9 36 -140 48 -138 51 -150 35 -140 -13 8
-13 5 6 -46 28 -77 33 -99 23 -99 -5 0 -9 5 -9 12 0 6 -18 26 -40 45 -62 54
-102 136 -212 448 -29 83 -85 214 -124 293 -39 78 -62 135 -52 125 10 -9 18
-13 18 -10 0 16 -166 250 -180 254 -18 5 -66 94 -110 208 -29 73 -40 96 -40
84z m250 -454 c0 -5 -13 6 -30 25 -16 19 -29 40 -29 45 0 6 13 -6 29 -25 16
-19 30 -39 30 -45z m-47 -67 c11 -10 16 -18 11 -18 -5 0 -4 -4 1 -8 21 -14 56
-72 45 -72 -8 0 -7 -8 4 -25 9 -13 16 -28 16 -31 0 -7 -18 12 -75 78 -20 23
-45 89 -45 118 1 10 4 9 12 -5 6 -11 20 -28 31 -37z m58 -196 c-5 -2 -6 -15
-2 -30 4 -15 6 -33 4 -39 -3 -7 0 -13 5 -13 5 0 13 -12 17 -27 3 -16 24 -65
46 -111 22 -45 53 -123 69 -172 34 -103 50 -220 31 -220 -8 0 -10 -8 -6 -20 3
-10 1 -29 -6 -42 l-12 -22 -10 24 c-11 29 -84 342 -97 415 -4 28 -22 91 -40
140 -33 94 -60 188 -60 208 0 7 16 -10 35 -38 20 -27 32 -51 26 -53z m-415
-48 c-7 -17 10 -28 18 -12 3 7 3 1 -1 -15 -3 -15 0 -41 7 -57 7 -16 10 -34 8
-41 -4 -11 -68 175 -68 197 0 5 9 -6 21 -25 11 -18 18 -40 15 -47z m50 -148
c0 -14 -5 -21 -9 -17 -4 4 -5 15 -1 24 9 24 12 21 10 -7z m64 -436 c34 -33 57
-60 51 -60 -6 0 -8 -7 -5 -15 4 -8 10 -12 16 -9 5 3 18 -3 29 -15 19 -20 19
-21 1 -21 -10 0 -23 -5 -30 -12 -9 -9 -13 -8 -17 4 -4 10 -14 14 -26 11 -15
-4 -19 0 -19 21 0 18 5 26 18 26 15 1 15 2 -2 15 -11 8 -29 15 -39 15 -16 0
-19 5 -13 30 6 30 1 34 -36 31 -12 -2 -15 4 -11 19 3 11 9 20 14 20 4 0 35
-27 69 -60z m-50 -26 c0 -22 -2 -25 -15 -14 -8 7 -15 19 -15 26 0 8 7 14 15
14 10 0 15 -10 15 -26z m-185 -70 c12 -5 14 -9 4 -14 -15 -10 -41 -1 -33 11 6
11 8 11 29 3z m228 -51 c-7 -2 -21 -2 -30 0 -10 3 -4 5 12 5 17 0 24 -2 18 -5z
m87 -13 c-57 -6 -73 -4 -66 8 2 4 30 5 63 2 l58 -4 -55 -6z m-107 -17 c-7 -2
-19 -2 -25 0 -7 3 -2 5 12 5 14 0 19 -2 13 -5z"/>
<path d="M5722 1690 c0 -14 2 -19 5 -12 2 6 2 18 0 25 -3 6 -5 1 -5 -13z"/>
<path d="M2710 1655 c0 -5 5 -17 10 -25 5 -8 10 -10 10 -5 0 6 -5 17 -10 25
-5 8 -10 11 -10 5z"/>
<path d="M2876 1625 c3 -11 10 -31 14 -45 14 -43 39 -96 40 -82 0 14 -14 50
-44 112 -9 19 -14 26 -10 15z"/>
<path d="M1981 1614 c0 -11 3 -14 6 -6 3 7 2 16 -1 19 -3 4 -6 -2 -5 -13z"/>
<path d="M1 1526 c-1 -53 2 -96 6 -96 10 0 33 63 39 105 3 21 -3 38 -20 59
l-23 28 -2 -96z"/>
<path d="M230 1545 c-7 -14 -17 -25 -22 -25 -5 0 -7 -4 -4 -8 3 -5 -4 -19 -15
-30 -33 -36 -95 -62 -146 -62 -41 -1 -45 -2 -28 -12 19 -11 19 -11 0 -20 -15
-6 -12 -7 10 -3 17 3 47 8 68 10 21 3 51 13 66 24 41 29 84 90 88 123 4 35 0
35 -17 3z"/>
<path d="M2440 1502 c6 -13 14 -21 18 -18 3 4 -2 14 -12 24 -18 16 -18 16 -6
-6z"/>
<path d="M2385 1460 c3 -5 8 -10 11 -10 2 0 4 5 4 10 0 6 -5 10 -11 10 -5 0
-7 -4 -4 -10z"/>
<path d="M2480 1441 c5 -11 15 -23 21 -27 6 -3 3 5 -6 20 -20 30 -30 35 -15 7z"/>
<path d="M2630 1406 c0 -2 8 -10 18 -17 15 -13 16 -12 3 4 -13 16 -21 21 -21
13z"/>
<path d="M2566 1318 c20 -32 39 -58 41 -58 7 0 -27 56 -52 85 -18 20 -14 11
11 -27z"/>
<path d="M2660 1366 c0 -2 8 -10 18 -17 15 -13 16 -12 3 4 -13 16 -21 21 -21
13z"/>
<path d="M1398 1318 c-2 -12 -23 -38 -48 -56 -25 -19 -45 -40 -44 -46 0 -6 4
-41 8 -79 4 -37 9 -215 11 -395 1 -180 6 -359 10 -398 7 -69 7 -71 -16 -77
-13 -3 -28 -2 -34 3 -6 5 -46 11 -88 12 -42 2 -77 6 -77 11 0 4 -11 7 -25 7
-15 0 -25 -6 -25 -15 0 -8 -14 -24 -30 -37 -22 -16 -27 -24 -18 -30 8 -4 -3
-8 -27 -8 -22 0 -99 -3 -172 -7 -130 -6 -132 -5 -128 15 7 38 25 61 65 83 32
18 40 28 40 51 0 19 -5 28 -16 28 -11 0 -14 6 -9 20 3 11 4 29 0 40 -5 15 -11
17 -30 10 -12 -5 -26 -6 -29 -3 -3 3 -8 -2 -12 -11 -3 -9 -17 -16 -29 -16 -13
0 -26 -4 -29 -9 -3 -4 -24 -11 -47 -15 -56 -9 -89 -28 -132 -75 -20 -23 -41
-41 -46 -41 -5 0 -11 -4 -13 -9 -1 -4 -14 -11 -28 -15 -17 -5 -21 -4 -11 2 9
7 10 12 2 16 -6 4 -14 0 -17 -8 -3 -9 -17 -16 -30 -16 -13 0 -23 -5 -21 -12 1
-7 -29 -17 -78 -26 -55 -10 -88 -21 -105 -37 -34 -31 -64 -45 -94 -45 -24 0
-26 -3 -26 -46 l0 -47 105 5 c72 4 113 11 130 22 13 9 40 16 58 16 43 0 96 18
122 40 13 12 46 20 100 25 44 4 114 13 155 20 191 35 673 50 897 28 50 -5 96
-7 101 -5 5 1 6 18 1 40 -5 20 -15 82 -23 137 -24 161 -47 266 -72 330 -36 92
-56 201 -45 243 14 49 3 120 -19 127 -68 22 -98 89 -76 173 14 50 13 52 -6 52
-16 0 -19 5 -16 25 3 14 2 25 -3 25 -4 0 -9 -10 -11 -22z m-18 -265 c-11 -17
-11 -17 -6 0 3 10 7 26 7 35 1 15 2 15 6 0 2 -10 -1 -25 -7 -35z m20 -50 c-1
-31 -3 -35 -11 -20 -6 9 -7 26 -4 37 10 30 15 24 15 -17z m-33 -15 c-3 -7 -5
-2 -5 12 0 14 2 19 5 13 2 -7 2 -19 0 -25z m16 -70 c-4 -27 -3 -39 5 -35 6 5
8 -1 4 -15 -6 -21 -7 -21 -10 -4 -3 15 -6 16 -13 5 -9 -14 -9 -5 6 66 9 40 14
29 8 -17z m-96 -684 c-3 -3 -12 -4 -19 -1 -8 3 -5 6 6 6 11 1 17 -2 13 -5z"/>
<path d="M2920 1337 c0 -14 31 -69 36 -64 3 3 -4 20 -15 38 -12 19 -21 30 -21
26z"/>
<path d="M2970 1316 c0 -2 8 -10 18 -17 15 -13 16 -12 3 4 -13 16 -21 21 -21
13z"/>
<path d="M1990 1290 c0 -5 5 -10 11 -10 5 0 7 5 4 10 -3 6 -8 10 -11 10 -2 0
-4 -4 -4 -10z"/>
<path d="M5310 1290 c0 -5 5 -10 11 -10 5 0 7 5 4 10 -3 6 -8 10 -11 10 -2 0
-4 -4 -4 -10z"/>
<path d="M2628 1225 c15 -29 62 -90 62 -81 0 4 -12 24 -27 44 -35 48 -48 62
-35 37z"/>
<path d="M2770 1186 c0 -2 8 -10 18 -17 15 -13 16 -12 3 4 -13 16 -21 21 -21
13z"/>
<path d="M2601 1136 c12 -20 23 -36 25 -36 7 0 -25 58 -36 65 -5 3 -1 -10 11
-29z"/>
<path d="M3050 1166 c0 -13 87 -170 109 -197 11 -13 20 -19 21 -12 0 6 -11 24
-24 40 -14 16 -43 63 -65 104 -22 41 -41 70 -41 65z"/>
<path d="M22 1143 c-12 -8 -22 -22 -22 -29 0 -10 9 -8 35 8 19 13 35 26 35 31
0 12 -23 7 -48 -10z"/>
<path d="M2645 1133 c10 -16 35 -50 55 -78 66 -87 131 -202 124 -219 -3 -9 -2
-16 4 -16 9 0 25 -37 23 -53 -1 -4 5 -17 13 -28 13 -20 14 -20 19 2 3 13 0 34
-7 48 -8 14 -19 37 -25 51 -24 56 -77 140 -143 228 -67 89 -99 121 -63 65z"/>
<path d="M2910 1141 c0 -15 92 -201 120 -241 9 -14 23 -40 31 -57 8 -18 19
-33 26 -33 7 0 17 -8 23 -17 9 -15 10 -14 4 7 -3 14 -23 48 -43 75 -43 57
-113 176 -141 238 -11 23 -20 36 -20 28z"/>
<path d="M1986 1123 c5 -5 12 -12 16 -18 4 -6 8 -2 8 8 0 9 -7 17 -17 17 -9 0
-12 -3 -7 -7z"/>
<path d="M2977 1109 c4 -13 8 -18 11 -10 2 7 -1 18 -6 23 -8 8 -9 4 -5 -13z"/>
<path d="M23 1101 l-23 -19 2 -339 c0 -186 3 -323 5 -305 4 31 6 32 48 32 l43
0 -13 -50 c-7 -28 -10 -48 -5 -45 5 3 11 23 15 45 7 40 27 60 60 60 38 0 175
114 175 145 0 9 15 31 33 49 17 17 45 51 60 74 15 24 34 45 42 49 8 3 15 11
15 18 0 7 15 25 33 39 17 15 38 31 45 37 11 9 20 6 38 -15 14 -14 29 -26 34
-26 6 0 10 -6 10 -12 1 -7 19 -25 40 -40 29 -20 40 -35 40 -53 0 -14 5 -25 10
-25 6 0 10 -21 10 -47 0 -34 7 -55 25 -79 17 -22 25 -47 26 -76 l2 -43 6 47
c4 26 14 55 24 66 9 10 17 28 17 39 0 18 10 57 27 103 4 11 8 8 13 -10 7 -23
8 -23 9 -3 1 12 4 28 7 36 3 9 -2 16 -14 19 -22 6 -72 95 -72 128 0 5 -6 7
-14 4 -7 -3 -24 8 -38 24 -14 17 -34 32 -44 35 -10 2 -1 5 21 6 63 2 21 17
-68 25 -43 3 -86 10 -97 16 -10 5 -34 10 -52 10 -18 0 -55 7 -82 15 -46 14
-49 14 -67 -8 -16 -17 -14 -10 6 33 l27 55 -28 -29 c-15 -16 -29 -25 -31 -20
-2 6 -19 8 -39 6 -26 -3 -39 1 -49 14 -10 13 -14 15 -15 5 0 -20 -95 -9 -120
14 -21 19 -50 14 -50 -10 0 -8 -5 -15 -11 -15 -6 0 -8 9 -4 20 8 25 -3 25 -32
1z m285 -101 c-17 -27 -33 -50 -35 -50 -6 0 28 64 45 83 25 29 23 19 -10 -33z
m-31 8 c-3 -8 -6 -5 -6 6 -1 11 2 17 5 13 3 -3 4 -12 1 -19z"/>
<path d="M2840 1089 c0 -9 8 -27 19 -40 10 -13 21 -31 24 -39 4 -12 6 -11 6 3
1 10 -10 35 -24 55 -14 21 -25 30 -25 21z"/>
<path d="M2006 1075 c4 -8 8 -15 10 -15 2 0 4 7 4 15 0 8 -4 15 -10 15 -5 0
-7 -7 -4 -15z"/>
<path d="M2630 1084 c0 -5 4 -14 8 -19 5 -6 41 -77 79 -160 61 -131 86 -188
135 -318 6 -15 14 -30 19 -33 8 -5 -12 55 -74 216 -26 69 -141 298 -157 314
-7 7 -10 6 -10 0z"/>
<path d="M3060 1084 c0 -8 50 -97 61 -108 18 -19 8 8 -22 60 -28 50 -39 63
-39 48z"/>
<path d="M2991 1075 c1 -19 18 -51 18 -35 0 8 -4 22 -9 30 -5 8 -9 11 -9 5z"/>
<path d="M1860 1055 c0 -8 2 -15 4 -15 2 0 6 7 10 15 3 8 1 15 -4 15 -6 0 -10
-7 -10 -15z"/>
<path d="M2003 1030 c-1 -12 3 -18 9 -14 6 4 8 -2 4 -17 -6 -20 -5 -21 4 -7 8
13 8 23 0 38 -13 25 -15 25 -17 0z"/>
<path d="M2025 969 c-4 -11 -4 -23 -1 -26 3 -4 6 1 6 11 0 9 4 14 10 11 6 -3
7 1 4 9 -8 21 -11 20 -19 -5z"/>
<path d="M3150 931 c0 -7 6 -25 14 -39 7 -15 21 -49 29 -77 8 -27 27 -81 41
-120 14 -38 26 -89 27 -113 2 -24 10 -48 18 -55 12 -10 13 -9 7 8 -5 11 -13
47 -17 80 -11 69 -24 115 -49 165 -10 19 -23 58 -29 85 -12 48 -41 96 -41 66z"/>
<path d="M2951 915 c-1 -11 6 -45 14 -75 8 -30 15 -79 15 -108 0 -38 13 -86
46 -175 26 -67 51 -126 57 -132 7 -7 7 -3 2 10 -4 11 -9 29 -10 40 -2 11 -15
49 -30 85 -29 69 -55 155 -54 180 0 8 9 -7 20 -35 10 -27 17 -39 15 -25 -5 31
-55 208 -66 235 l-9 20 0 -20z"/>
<path d="M1863 815 c0 -38 2 -53 4 -32 2 20 2 52 0 70 -2 17 -4 1 -4 -38z"/>
<path d="M913 725 c0 -27 2 -38 4 -22 2 15 2 37 0 50 -2 12 -4 0 -4 -28z"/>
<path d="M3101 712 c-2 -28 22 -101 31 -96 6 4 8 -3 3 -17 -5 -19 -4 -21 4 -9
6 8 11 10 11 4 0 -17 41 -106 46 -101 4 4 -13 56 -40 120 -9 20 -14 37 -11 37
2 0 13 -17 24 -37 11 -21 20 -32 21 -25 0 16 -31 75 -42 80 -5 2 -8 13 -8 23
0 11 -4 18 -8 15 -5 -3 -7 -20 -6 -38 3 -28 1 -26 -10 12 -8 25 -14 39 -15 32z"/>
<path d="M1860 691 c0 -12 5 -21 10 -21 6 0 10 6 10 14 0 8 -4 18 -10 21 -5 3
-10 -3 -10 -14z"/>
<path d="M3301 574 c0 -11 3 -14 6 -6 3 7 2 16 -1 19 -3 4 -6 -2 -5 -13z"/>
<path d="M3310 516 c0 -19 -5 -36 -12 -38 -9 -3 -7 -14 5 -41 22 -46 32 -48
22 -4 -4 17 -6 51 -6 75 1 23 -1 42 -4 42 -3 0 -5 -15 -5 -34z"/>
<path d="M978 223 c7 -3 16 -2 19 1 4 3 -2 6 -13 5 -11 0 -14 -3 -6 -6z"/>
</g>
</svg>
